<svg xmlns="http://www.w3.org/2000/svg" width="645" height="136" fill="none" viewBox="0 0 645 136">
  <path fill="#fff" d="m72 0 71.329 51.824-27.245 83.852H27.916L.671 51.824 72 0Z"/>
  <path fill="#111827" d="m72.5 37 35.665 25.912-13.623 41.926H50.458L36.835 62.912 72.5 37Z"/>
  <path fill="#fff" d="m583.304 110-14.795-52.364h12.579l9.205 36.818h.477l9.409-36.818h12.443l9.409 36.614h.512l9.068-36.614h12.613L629.395 110h-12.852l-9.819-35.386h-.715L596.19 110h-12.886Zm-44.872 1.023c-5.114 0-9.546-1.125-13.296-3.375s-6.659-5.398-8.727-9.444c-2.045-4.045-3.068-8.772-3.068-14.181 0-5.41 1.023-10.148 3.068-14.216 2.068-4.068 4.977-7.227 8.727-9.477s8.182-3.375 13.296-3.375c5.113 0 9.545 1.125 13.295 3.375s6.648 5.409 8.693 9.477c2.069 4.068 3.103 8.807 3.103 14.216 0 5.409-1.034 10.136-3.103 14.181-2.045 4.046-4.943 7.194-8.693 9.444-3.75 2.25-8.182 3.375-13.295 3.375Zm.068-9.887c2.773 0 5.091-.761 6.955-2.284 1.863-1.545 3.25-3.613 4.159-6.204.931-2.591 1.397-5.478 1.397-8.66 0-3.204-.466-6.102-1.397-8.693-.909-2.613-2.296-4.693-4.159-6.238-1.864-1.546-4.182-2.318-6.955-2.318-2.841 0-5.205.772-7.091 2.318-1.864 1.545-3.261 3.625-4.193 6.238-.909 2.591-1.364 5.49-1.364 8.694 0 3.181.455 6.068 1.364 8.659.932 2.59 2.329 4.659 4.193 6.204 1.886 1.523 4.25 2.284 7.091 2.284Zm-35.599-60.954V110H490.56V40.182h12.341Zm-22.006 17.454v9.546H449.94v-9.546h30.955ZM457.679 110V52.693c0-3.523.727-6.454 2.182-8.795 1.477-2.341 3.454-4.091 5.932-5.25 2.477-1.16 5.227-1.739 8.25-1.739 2.136 0 4.034.17 5.693.511 1.659.341 2.886.648 3.682.92l-2.455 9.546a21.406 21.406 0 0 0-1.977-.477c-.796-.182-1.682-.273-2.659-.273-2.296 0-3.921.557-4.875 1.67-.932 1.092-1.398 2.66-1.398 4.705V110h-12.375Zm-43.364 1.057c-3.318 0-6.306-.591-8.966-1.773-2.636-1.204-4.727-2.977-6.272-5.318-1.523-2.341-2.284-5.227-2.284-8.66 0-2.954.545-5.397 1.636-7.329a12.667 12.667 0 0 1 4.466-4.636c1.886-1.16 4.011-2.034 6.375-2.625a51.84 51.84 0 0 1 7.398-1.33c3.068-.318 5.556-.602 7.466-.852 1.909-.273 3.295-.682 4.159-1.227.886-.568 1.329-1.443 1.329-2.625v-.205c0-2.568-.761-4.557-2.284-5.966-1.523-1.409-3.716-2.113-6.579-2.113-3.023 0-5.421.659-7.194 1.977-1.75 1.318-2.931 2.875-3.545 4.67l-11.523-1.636c.909-3.182 2.409-5.84 4.5-7.977 2.091-2.16 4.648-3.773 7.671-4.841 3.022-1.091 6.363-1.636 10.022-1.636 2.523 0 5.034.295 7.534.886 2.5.59 4.785 1.568 6.853 2.932 2.068 1.34 3.727 3.17 4.977 5.488 1.273 2.319 1.909 5.216 1.909 8.694V110h-11.864v-7.193h-.409c-.75 1.454-1.806 2.818-3.17 4.091-1.341 1.25-3.034 2.261-5.08 3.034-2.022.75-4.397 1.125-7.125 1.125Zm3.205-9.068c2.477 0 4.625-.489 6.443-1.466 1.818-1 3.216-2.319 4.193-3.955 1-1.636 1.5-3.42 1.5-5.352v-6.17c-.386.318-1.045.613-1.977.886a28.27 28.27 0 0 1-3.068.716 94.827 94.827 0 0 1-3.375.545c-1.114.16-2.08.296-2.898.41-1.841.25-3.489.658-4.943 1.227-1.455.568-2.602 1.363-3.443 2.386-.841 1-1.262 2.295-1.262 3.886 0 2.273.83 3.989 2.489 5.148 1.659 1.159 3.773 1.739 6.341 1.739Zm-28.594-44.353v9.546h-30.102v-9.546h30.102Zm-22.67-12.545h12.341V94.25c0 1.66.25 2.932.75 3.818.522.864 1.204 1.455 2.045 1.773.841.318 1.773.477 2.795.477.773 0 1.478-.057 2.114-.17a18.542 18.542 0 0 0 1.5-.307l2.08 9.648c-.659.227-1.603.477-2.83.75-1.204.272-2.682.431-4.432.477-3.091.091-5.875-.375-8.352-1.398-2.477-1.045-4.443-2.659-5.898-4.841-1.432-2.182-2.136-4.909-2.113-8.181V45.09Zm-49.637 34.227V110h-12.341V57.636h11.796v8.898h.614c1.204-2.932 3.125-5.261 5.761-6.989 2.659-1.727 5.943-2.59 9.852-2.59 3.614 0 6.762.772 9.443 2.318 2.705 1.545 4.796 3.784 6.273 6.716 1.5 2.931 2.239 6.488 2.216 10.67V110h-12.341V78.568c0-3.5-.909-6.239-2.727-8.216-1.796-1.977-4.284-2.966-7.466-2.966-2.159 0-4.08.478-5.761 1.432-1.66.932-2.966 2.284-3.921 4.057-.932 1.773-1.398 3.92-1.398 6.443Zm-46.065 31.705c-5.25 0-9.784-1.091-13.602-3.273-3.796-2.205-6.716-5.318-8.762-9.34-2.045-4.046-3.068-8.808-3.068-14.285 0-5.386 1.023-10.114 3.068-14.182 2.069-4.09 4.955-7.273 8.659-9.545 3.705-2.296 8.057-3.444 13.057-3.444 3.228 0 6.273.523 9.137 1.569a20.654 20.654 0 0 1 7.636 4.772c2.227 2.16 3.977 4.91 5.25 8.25 1.273 3.319 1.909 7.273 1.909 11.864v3.784h-42.92v-8.318h31.091c-.023-2.364-.535-4.466-1.535-6.307-1-1.864-2.397-3.33-4.193-4.398-1.772-1.068-3.841-1.602-6.204-1.602-2.523 0-4.739.614-6.648 1.841a12.683 12.683 0 0 0-4.466 4.773c-1.045 1.954-1.579 4.102-1.602 6.443v7.261c0 3.046.557 5.66 1.67 7.841 1.114 2.16 2.671 3.818 4.671 4.977 2 1.137 4.341 1.705 7.022 1.705 1.796 0 3.421-.25 4.875-.75 1.455-.523 2.716-1.284 3.785-2.284 1.068-1 1.875-2.239 2.42-3.716l11.523 1.295c-.728 3.046-2.114 5.705-4.159 7.978-2.023 2.25-4.614 4-7.773 5.25-3.159 1.227-6.773 1.841-10.841 1.841ZM186.886 110V40.182h26.182c5.364 0 9.864 1 13.5 3 3.659 2 6.421 4.75 8.284 8.25 1.887 3.477 2.83 7.432 2.83 11.863 0 4.478-.943 8.455-2.83 11.932-1.886 3.478-4.67 6.216-8.352 8.216-3.682 1.978-8.216 2.966-13.602 2.966h-17.353V76.011h15.648c3.137 0 5.705-.545 7.705-1.636 2-1.09 3.477-2.59 4.432-4.5.977-1.91 1.465-4.102 1.465-6.58 0-2.477-.488-4.659-1.465-6.545-.955-1.886-2.444-3.352-4.466-4.398-2-1.068-4.58-1.602-7.739-1.602h-11.591V110h-12.648Z"/>
</svg>
