<svg width="639" height="136" viewBox="0 0 639 136" fill="none" xmlns="http://www.w3.org/2000/svg">
<path fill-rule="evenodd" clip-rule="evenodd" d="M142.658 51.8237L71.3292 0L0 51.8237L27.2453 135.676H115.413L142.658 51.8237ZM107.494 62.9119L71.8292 37L36.1646 62.9119L49.7873 104.838H93.8712L107.494 62.9119Z" fill="white"/>
<path d="M577.304 108L562.509 55.6364H575.088L584.293 92.4545H584.77L594.179 55.6364H606.622L616.031 92.25H616.543L625.611 55.6364H638.224L623.395 108H610.543L600.724 72.6136H600.009L590.19 108H577.304Z" fill="white"/>
<path d="M532.432 109.023C527.318 109.023 522.886 107.898 519.136 105.648C515.386 103.398 512.477 100.25 510.409 96.2045C508.364 92.1591 507.341 87.4318 507.341 82.0227C507.341 76.6136 508.364 71.875 510.409 67.8068C512.477 63.7386 515.386 60.5795 519.136 58.3295C522.886 56.0795 527.318 54.9545 532.432 54.9545C537.545 54.9545 541.977 56.0795 545.727 58.3295C549.477 60.5795 552.375 63.7386 554.42 67.8068C556.489 71.875 557.523 76.6136 557.523 82.0227C557.523 87.4318 556.489 92.1591 554.42 96.2045C552.375 100.25 549.477 103.398 545.727 105.648C541.977 107.898 537.545 109.023 532.432 109.023ZM532.5 99.1363C535.273 99.1363 537.591 98.375 539.455 96.8523C541.318 95.3068 542.705 93.2386 543.614 90.6477C544.545 88.0568 545.011 85.1704 545.011 81.9886C545.011 78.7841 544.545 75.8863 543.614 73.2954C542.705 70.6818 541.318 68.6023 539.455 67.0568C537.591 65.5113 535.273 64.7386 532.5 64.7386C529.659 64.7386 527.295 65.5113 525.409 67.0568C523.545 68.6023 522.148 70.6818 521.216 73.2954C520.307 75.8863 519.852 78.7841 519.852 81.9886C519.852 85.1704 520.307 88.0568 521.216 90.6477C522.148 93.2386 523.545 95.3068 525.409 96.8523C527.295 98.375 529.659 99.1363 532.5 99.1363Z" fill="white"/>
<path d="M496.901 38.1818V108H484.56V38.1818H496.901Z" fill="white"/>
<path d="M474.895 55.6364V65.1818H443.94V55.6364H474.895ZM451.679 108V50.6932C451.679 47.1705 452.406 44.2386 453.861 41.8977C455.338 39.5568 457.315 37.8068 459.793 36.6477C462.27 35.4886 465.02 34.9091 468.043 34.9091C470.179 34.9091 472.077 35.0795 473.736 35.4205C475.395 35.7614 476.622 36.0682 477.418 36.3409L474.963 45.8864C474.44 45.7273 473.781 45.5682 472.986 45.4091C472.19 45.2273 471.304 45.1364 470.327 45.1364C468.031 45.1364 466.406 45.6932 465.452 46.8068C464.52 47.8977 464.054 49.4659 464.054 51.5114V108H451.679Z" fill="white"/>
<path d="M408.315 109.057C404.997 109.057 402.009 108.466 399.349 107.284C396.713 106.08 394.622 104.307 393.077 101.966C391.554 99.625 390.793 96.7386 390.793 93.3068C390.793 90.3523 391.338 87.9091 392.429 85.9773C393.52 84.0454 395.009 82.5 396.895 81.3409C398.781 80.1818 400.906 79.3068 403.27 78.7159C405.656 78.1023 408.122 77.6591 410.668 77.3863C413.736 77.0682 416.224 76.7841 418.134 76.5341C420.043 76.2613 421.429 75.8523 422.293 75.3068C423.179 74.7386 423.622 73.8636 423.622 72.6818V72.4773C423.622 69.9091 422.861 67.9204 421.338 66.5113C419.815 65.1023 417.622 64.3977 414.759 64.3977C411.736 64.3977 409.338 65.0568 407.565 66.375C405.815 67.6932 404.634 69.25 404.02 71.0454L392.497 69.4091C393.406 66.2273 394.906 63.5682 396.997 61.4318C399.088 59.2727 401.645 57.6591 404.668 56.5909C407.69 55.5 411.031 54.9545 414.69 54.9545C417.213 54.9545 419.724 55.25 422.224 55.8409C424.724 56.4318 427.009 57.4091 429.077 58.7727C431.145 60.1136 432.804 61.9432 434.054 64.2613C435.327 66.5795 435.963 69.4773 435.963 72.9545V108H424.099V100.807H423.69C422.94 102.261 421.884 103.625 420.52 104.898C419.179 106.148 417.486 107.159 415.44 107.932C413.418 108.682 411.043 109.057 408.315 109.057ZM411.52 99.9886C413.997 99.9886 416.145 99.5 417.963 98.5227C419.781 97.5227 421.179 96.2045 422.156 94.5682C423.156 92.9318 423.656 91.1477 423.656 89.2159V83.0454C423.27 83.3636 422.611 83.6591 421.679 83.9318C420.77 84.2045 419.747 84.4432 418.611 84.6477C417.474 84.8523 416.349 85.0341 415.236 85.1932C414.122 85.3523 413.156 85.4886 412.338 85.6023C410.497 85.8523 408.849 86.2613 407.395 86.8295C405.94 87.3977 404.793 88.1932 403.952 89.2159C403.111 90.2159 402.69 91.5113 402.69 93.1023C402.69 95.375 403.52 97.0909 405.179 98.25C406.838 99.4091 408.952 99.9886 411.52 99.9886Z" fill="white"/>
<path d="M382.926 55.6364V65.1818H352.824V55.6364H382.926ZM360.256 43.0909H372.597V92.25C372.597 93.9091 372.847 95.1818 373.347 96.0682C373.869 96.9318 374.551 97.5227 375.392 97.8409C376.233 98.1591 377.165 98.3182 378.187 98.3182C378.96 98.3182 379.665 98.2614 380.301 98.1477C380.96 98.0341 381.46 97.9318 381.801 97.8409L383.881 107.489C383.222 107.716 382.278 107.966 381.051 108.239C379.847 108.511 378.369 108.67 376.619 108.716C373.528 108.807 370.744 108.341 368.267 107.318C365.79 106.273 363.824 104.659 362.369 102.477C360.937 100.295 360.233 97.5682 360.256 94.2955V43.0909Z" fill="white"/>
<path d="M310.619 77.3182V108H298.278V55.6363H310.074V64.5341H310.688C311.892 61.6023 313.813 59.2727 316.449 57.5454C319.108 55.8182 322.392 54.9545 326.301 54.9545C329.915 54.9545 333.063 55.7273 335.744 57.2727C338.449 58.8182 340.54 61.0568 342.017 63.9886C343.517 66.9204 344.256 70.4773 344.233 74.6591V108H331.892V76.5682C331.892 73.0682 330.983 70.3295 329.165 68.3523C327.369 66.375 324.881 65.3863 321.699 65.3863C319.54 65.3863 317.619 65.8636 315.938 66.8182C314.278 67.75 312.972 69.1023 312.017 70.875C311.085 72.6477 310.619 74.7954 310.619 77.3182Z" fill="white"/>
<path d="M264.554 109.023C259.304 109.023 254.77 107.932 250.952 105.75C247.156 103.545 244.236 100.432 242.19 96.4091C240.145 92.3636 239.122 87.6023 239.122 82.125C239.122 76.7386 240.145 72.0113 242.19 67.9432C244.259 63.8523 247.145 60.6704 250.849 58.3977C254.554 56.1023 258.906 54.9545 263.906 54.9545C267.134 54.9545 270.179 55.4773 273.043 56.5227C275.929 57.5454 278.474 59.1363 280.679 61.2954C282.906 63.4545 284.656 66.2045 285.929 69.5454C287.202 72.8636 287.838 76.8182 287.838 81.4091V85.1932H244.918V76.875H276.009C275.986 74.5113 275.474 72.4091 274.474 70.5682C273.474 68.7045 272.077 67.2386 270.281 66.1704C268.509 65.1023 266.44 64.5682 264.077 64.5682C261.554 64.5682 259.338 65.1818 257.429 66.4091C255.52 67.6136 254.031 69.2045 252.963 71.1818C251.918 73.1363 251.384 75.2841 251.361 77.625V84.8863C251.361 87.9318 251.918 90.5454 253.031 92.7273C254.145 94.8863 255.702 96.5454 257.702 97.7045C259.702 98.8409 262.043 99.4091 264.724 99.4091C266.52 99.4091 268.145 99.1591 269.599 98.6591C271.054 98.1363 272.315 97.375 273.384 96.375C274.452 95.375 275.259 94.1363 275.804 92.6591L287.327 93.9545C286.599 97 285.213 99.6591 283.168 101.932C281.145 104.182 278.554 105.932 275.395 107.182C272.236 108.409 268.622 109.023 264.554 109.023Z" fill="white"/>
<path d="M180.886 108V38.1818H207.068C212.432 38.1818 216.932 39.1818 220.568 41.1818C224.227 43.1818 226.989 45.9318 228.852 49.4318C230.739 52.9091 231.682 56.8636 231.682 61.2955C231.682 65.7727 230.739 69.75 228.852 73.2273C226.966 76.7046 224.182 79.4432 220.5 81.4432C216.818 83.4205 212.284 84.4091 206.898 84.4091H189.545V74.0114H205.193C208.33 74.0114 210.898 73.4659 212.898 72.375C214.898 71.2841 216.375 69.7841 217.33 67.875C218.307 65.9659 218.795 63.7727 218.795 61.2955C218.795 58.8182 218.307 56.6364 217.33 54.75C216.375 52.8636 214.886 51.3977 212.864 50.3523C210.864 49.2841 208.284 48.75 205.125 48.75H193.534V108H180.886Z" fill="white"/>
</svg>
